<svg width="1500" height="500" viewBox="0 0 1500 500" fill="none" xmlns="http://www.w3.org/2000/svg">
<g clip-path="url(#clip0_402_22)">
<path d="M658.275 278.25C640.575 278.25 626.475 273.45 615.975 263.85C605.475 254.25 600 240 599.55 221.1C599.55 220.05 599.55 218.7 599.55 217.05C599.55 215.4 599.55 214.125 599.55 213.225C600 201.375 602.625 191.25 607.425 182.85C612.375 174.3 619.125 167.85 627.675 163.5C636.375 159 646.5 156.75 658.05 156.75C671.25 156.75 682.125 159.375 690.675 164.625C699.375 169.875 705.9 177 710.25 186C714.6 195 716.775 205.275 716.775 216.825V222.225C716.775 223.875 716.175 225.225 714.975 226.275C713.925 227.325 712.65 227.85 711.15 227.85H639.15C639.15 228 639.15 228.225 639.15 228.525C639.15 228.825 639.15 229.125 639.15 229.425C639.3 233.775 640.05 237.75 641.4 241.35C642.75 244.95 644.85 247.8 647.7 249.9C650.55 252 654 253.05 658.05 253.05C661.05 253.05 663.525 252.6 665.475 251.7C667.575 250.65 669.3 249.525 670.65 248.325C672 246.975 673.05 245.85 673.8 244.95C675.15 243.45 676.2 242.55 676.95 242.25C677.85 241.8 679.2 241.575 681 241.575H708.9C710.4 241.575 711.6 242.025 712.5 242.925C713.55 243.675 714 244.8 713.85 246.3C713.7 248.85 712.425 251.925 710.025 255.525C707.625 259.125 704.1 262.725 699.45 266.325C694.95 269.775 689.25 272.625 682.35 274.875C675.45 277.125 667.425 278.25 658.275 278.25ZM639.15 205.575H677.175V205.125C677.175 200.325 676.425 196.125 674.925 192.525C673.575 188.925 671.4 186.15 668.4 184.2C665.55 182.25 662.1 181.275 658.05 181.275C654 181.275 650.55 182.25 647.7 184.2C645 186.15 642.9 188.925 641.4 192.525C639.9 196.125 639.15 200.325 639.15 205.125V205.575ZM786.019 278.25C776.269 278.25 767.944 277.2 761.044 275.1C754.294 272.85 748.744 270.15 744.394 267C740.194 263.85 737.044 260.625 734.944 257.325C732.844 253.875 731.719 250.95 731.569 248.55C731.419 246.9 731.944 245.55 733.144 244.5C734.344 243.3 735.619 242.7 736.969 242.7H762.619C763.069 242.7 763.444 242.775 763.744 242.925C764.044 243.075 764.494 243.375 765.094 243.825C767.044 244.875 768.994 246.225 770.944 247.875C772.894 249.375 775.144 250.725 777.694 251.925C780.244 253.125 783.319 253.725 786.919 253.725C791.119 253.725 794.644 252.9 797.494 251.25C800.344 249.6 801.769 247.125 801.769 243.825C801.769 241.425 801.094 239.475 799.744 237.975C798.394 236.325 795.619 234.75 791.419 233.25C787.369 231.75 781.219 230.25 772.969 228.75C765.169 226.95 758.344 224.625 752.494 221.775C746.644 218.775 742.144 214.95 738.994 210.3C735.844 205.5 734.269 199.725 734.269 192.975C734.269 186.975 736.219 181.2 740.119 175.65C744.019 170.1 749.719 165.6 757.219 162.15C764.719 158.55 773.944 156.75 784.894 156.75C793.594 156.75 801.094 157.8 807.394 159.9C813.844 161.85 819.244 164.4 823.594 167.55C828.094 170.7 831.469 173.925 833.719 177.225C835.969 180.525 837.169 183.525 837.319 186.225C837.469 187.725 837.019 189.075 835.969 190.275C834.919 191.325 833.719 191.85 832.369 191.85H808.969C808.369 191.85 807.769 191.775 807.169 191.625C806.569 191.325 806.044 191.025 805.594 190.725C803.794 189.825 801.994 188.625 800.194 187.125C798.394 185.625 796.294 184.275 793.894 183.075C791.494 181.875 788.494 181.275 784.894 181.275C780.844 181.275 777.694 182.175 775.444 183.975C773.194 185.775 772.069 188.1 772.069 190.95C772.069 192.9 772.669 194.7 773.869 196.35C775.219 198 777.844 199.5 781.744 200.85C785.794 202.2 792.019 203.7 800.419 205.35C810.769 207 819.019 209.7 825.169 213.45C831.319 217.05 835.669 221.325 838.219 226.275C840.769 231.075 842.044 236.175 842.044 241.575C842.044 248.775 839.869 255.15 835.519 260.7C831.319 266.25 825.019 270.6 816.619 273.75C808.219 276.75 798.019 278.25 786.019 278.25ZM916.009 278.25C904.909 278.25 895.084 276.225 886.534 272.175C877.984 268.125 871.159 262.275 866.059 254.625C861.109 246.825 858.409 237.525 857.959 226.725C857.809 224.325 857.734 221.325 857.734 217.725C857.734 213.975 857.809 210.9 857.959 208.5C858.409 197.55 861.109 188.25 866.059 180.6C871.009 172.8 877.759 166.875 886.309 162.825C895.009 158.775 904.909 156.75 916.009 156.75C926.359 156.75 935.209 158.25 942.559 161.25C949.909 164.1 955.909 167.7 960.559 172.05C965.209 176.4 968.659 180.9 970.909 185.55C973.309 190.05 974.584 194.025 974.734 197.475C974.884 198.975 974.359 200.325 973.159 201.525C971.959 202.575 970.609 203.1 969.109 203.1H940.534C938.884 203.1 937.609 202.725 936.709 201.975C935.809 201.225 934.984 200.1 934.234 198.6C932.434 193.95 930.109 190.65 927.259 188.7C924.559 186.75 921.034 185.775 916.684 185.775C910.684 185.775 906.034 187.725 902.734 191.625C899.584 195.525 897.859 201.525 897.559 209.625C897.409 215.625 897.409 220.95 897.559 225.6C897.859 233.85 899.584 239.85 902.734 243.6C906.034 247.35 910.684 249.225 916.684 249.225C921.334 249.225 925.009 248.25 927.709 246.3C930.409 244.35 932.584 241.05 934.234 236.4C934.984 234.9 935.809 233.775 936.709 233.025C937.609 232.275 938.884 231.9 940.534 231.9H969.109C970.609 231.9 971.959 232.5 973.159 233.7C974.359 234.75 974.884 236.025 974.734 237.525C974.584 240.075 973.834 243.075 972.484 246.525C971.134 249.825 969.034 253.35 966.184 257.1C963.334 260.85 959.584 264.375 954.934 267.675C950.434 270.825 944.959 273.375 938.509 275.325C932.059 277.275 924.559 278.25 916.009 278.25ZM1050.3 278.25C1037.7 278.25 1027.05 276.225 1018.35 272.175C1009.8 268.125 1003.2 262.35 998.549 254.85C994.049 247.2 991.499 238.125 990.899 227.625C990.749 224.625 990.674 221.25 990.674 217.5C990.674 213.6 990.749 210.225 990.899 207.375C991.499 196.725 994.199 187.65 998.999 180.15C1003.8 172.65 1010.47 166.875 1019.02 162.825C1027.72 158.775 1038.15 156.75 1050.3 156.75C1062.6 156.75 1073.02 158.775 1081.57 162.825C1090.27 166.875 1097.02 172.65 1101.82 180.15C1106.62 187.65 1109.32 196.725 1109.92 207.375C1110.07 210.225 1110.15 213.6 1110.15 217.5C1110.15 221.25 1110.07 224.625 1109.92 227.625C1109.32 238.125 1106.7 247.2 1102.05 254.85C1097.55 262.35 1090.95 268.125 1082.25 272.175C1073.7 276.225 1063.05 278.25 1050.3 278.25ZM1050.3 250.8C1057.05 250.8 1061.92 248.775 1064.92 244.725C1068.07 240.675 1069.87 234.6 1070.32 226.5C1070.47 224.25 1070.55 221.25 1070.55 217.5C1070.55 213.75 1070.47 210.75 1070.32 208.5C1069.87 200.55 1068.07 194.55 1064.92 190.5C1061.92 186.3 1057.05 184.2 1050.3 184.2C1043.7 184.2 1038.82 186.3 1035.67 190.5C1032.52 194.55 1030.8 200.55 1030.5 208.5C1030.35 210.75 1030.27 213.75 1030.27 217.5C1030.27 221.25 1030.35 224.25 1030.5 226.5C1030.8 234.6 1032.52 240.675 1035.67 244.725C1038.82 248.775 1043.7 250.8 1050.3 250.8ZM1175.93 278.25C1168.73 278.25 1162.2 277.125 1156.35 274.875C1150.65 272.475 1145.7 269.025 1141.5 264.525C1137.45 259.875 1134.3 254.325 1132.05 247.875C1129.8 241.275 1128.53 233.775 1128.23 225.375C1128.08 222.375 1128 219.75 1128 217.5C1128 215.1 1128.08 212.475 1128.23 209.625C1128.53 201.525 1129.8 194.25 1132.05 187.8C1134.3 181.35 1137.45 175.8 1141.5 171.15C1145.55 166.5 1150.5 162.975 1156.35 160.575C1162.2 158.025 1168.73 156.75 1175.93 156.75C1183.43 156.75 1189.88 158.025 1195.28 160.575C1200.68 162.975 1205.25 166.125 1209 170.025V121.875C1209 120.225 1209.53 118.875 1210.58 117.825C1211.63 116.775 1212.98 116.25 1214.63 116.25H1242.08C1243.58 116.25 1244.85 116.775 1245.9 117.825C1247.1 118.875 1247.7 120.225 1247.7 121.875V270.375C1247.7 272.025 1247.1 273.375 1245.9 274.425C1244.85 275.475 1243.58 276 1242.08 276H1216.65C1215 276 1213.65 275.475 1212.6 274.425C1211.55 273.375 1211.03 272.025 1211.03 270.375V263.175C1207.43 267.525 1202.78 271.125 1197.08 273.975C1191.38 276.825 1184.33 278.25 1175.93 278.25ZM1188.08 248.1C1193.18 248.1 1197.15 247.05 1200 244.95C1203 242.7 1205.18 239.85 1206.53 236.4C1208.03 232.95 1208.85 229.2 1209 225.15C1209.15 222.15 1209.23 219.3 1209.23 216.6C1209.23 213.9 1209.15 211.125 1209 208.275C1208.85 204.525 1208.03 201.075 1206.53 197.925C1205.03 194.625 1202.78 192 1199.78 190.05C1196.78 187.95 1192.88 186.9 1188.08 186.9C1183.13 186.9 1179.15 187.95 1176.15 190.05C1173.3 192.15 1171.28 195 1170.08 198.6C1168.88 202.2 1168.13 206.175 1167.83 210.525C1167.38 215.175 1167.38 219.825 1167.83 224.475C1168.13 228.825 1168.88 232.8 1170.08 236.4C1171.28 240 1173.3 242.85 1176.15 244.95C1179.15 247.05 1183.13 248.1 1188.08 248.1ZM1328.22 278.25C1310.52 278.25 1296.42 273.45 1285.92 263.85C1275.42 254.25 1269.95 240 1269.5 221.1C1269.5 220.05 1269.5 218.7 1269.5 217.05C1269.5 215.4 1269.5 214.125 1269.5 213.225C1269.95 201.375 1272.57 191.25 1277.37 182.85C1282.32 174.3 1289.07 167.85 1297.62 163.5C1306.32 159 1316.45 156.75 1328 156.75C1341.2 156.75 1352.07 159.375 1360.62 164.625C1369.32 169.875 1375.85 177 1380.2 186C1384.55 195 1386.72 205.275 1386.72 216.825V222.225C1386.72 223.875 1386.12 225.225 1384.92 226.275C1383.87 227.325 1382.6 227.85 1381.1 227.85H1309.1C1309.1 228 1309.1 228.225 1309.1 228.525C1309.1 228.825 1309.1 229.125 1309.1 229.425C1309.25 233.775 1310 237.75 1311.35 241.35C1312.7 244.95 1314.8 247.8 1317.65 249.9C1320.5 252 1323.95 253.05 1328 253.05C1331 253.05 1333.47 252.6 1335.42 251.7C1337.52 250.65 1339.25 249.525 1340.6 248.325C1341.95 246.975 1343 245.85 1343.75 244.95C1345.1 243.45 1346.15 242.55 1346.9 242.25C1347.8 241.8 1349.15 241.575 1350.95 241.575H1378.85C1380.35 241.575 1381.55 242.025 1382.45 242.925C1383.5 243.675 1383.95 244.8 1383.8 246.3C1383.65 248.85 1382.37 251.925 1379.97 255.525C1377.57 259.125 1374.05 262.725 1369.4 266.325C1364.9 269.775 1359.2 272.625 1352.3 274.875C1345.4 277.125 1337.37 278.25 1328.22 278.25ZM1309.1 205.575H1347.12V205.125C1347.12 200.325 1346.37 196.125 1344.87 192.525C1343.52 188.925 1341.35 186.15 1338.35 184.2C1335.5 182.25 1332.05 181.275 1328 181.275C1323.95 181.275 1320.5 182.25 1317.65 184.2C1314.95 186.15 1312.85 188.925 1311.35 192.525C1309.85 196.125 1309.1 200.325 1309.1 205.125V205.575Z" fill="white"/>
<path d="M500 250C500 388.071 388.071 500 250 500C111.929 500 0 388.071 0 250C0 111.929 111.929 0 250 0C388.071 0 500 111.929 500 250Z" fill="#F7DF1E"/>
<path d="M67.8423 245.975V236.525C67.8423 233.075 70.0173 229.925 74.3673 227.075L164.367 166.325C165.117 165.875 166.017 165.65 167.067 165.65C168.267 165.65 169.317 166.1 170.217 167C171.117 167.9 171.567 169.025 171.567 170.375V206.825C171.567 210.575 169.167 213.875 164.367 216.725L124.992 241.25L164.367 266C165.867 266.9 166.917 267.575 167.517 268.025C168.267 268.475 169.092 269.45 169.992 270.95C171.042 272.3 171.567 273.875 171.567 275.675V312.125C171.567 313.475 171.117 314.6 170.217 315.5C169.317 316.4 168.267 316.85 167.067 316.85C166.017 316.85 165.117 316.625 164.367 316.175L74.3673 255.425C70.0173 252.575 67.8423 249.425 67.8423 245.975ZM275.349 143.15H305.499C306.849 143.15 307.974 143.675 308.874 144.725C309.924 145.625 310.449 146.6 310.449 147.65C310.449 148.55 310.299 149.375 309.999 150.125L233.949 332.15C232.149 336.65 228.849 338.9 224.049 338.9H194.574C193.224 338.9 192.024 338.375 190.974 337.325C190.074 336.425 189.624 335.45 189.624 334.4C189.624 333.5 189.774 332.675 190.074 331.925L265.449 149.9C267.399 145.4 270.699 143.15 275.349 143.15ZM432.101 236.525V245.975C432.101 249.425 429.926 252.575 425.576 255.425L335.576 316.175C334.826 316.625 333.851 316.85 332.651 316.85C331.601 316.85 330.626 316.4 329.726 315.5C328.826 314.6 328.376 313.475 328.376 312.125V275.675C328.376 273.875 328.826 272.3 329.726 270.95C330.776 269.45 331.601 268.475 332.201 268.025C332.951 267.575 334.076 266.9 335.576 266L374.951 241.25L335.576 216.725C330.776 213.875 328.376 210.575 328.376 206.825V170.375C328.376 169.025 328.826 167.9 329.726 167C330.626 166.1 331.601 165.65 332.651 165.65C333.851 165.65 334.826 165.875 335.576 166.325L425.576 227.075C429.926 229.925 432.101 233.075 432.101 236.525Z" fill="black"/>
<path d="M599.25 370C598.7 370 598.275 369.85 597.975 369.55C597.675 369.2 597.525 368.775 597.525 368.275V319.3C597.525 318.75 597.675 318.325 597.975 318.025C598.275 317.675 598.7 317.5 599.25 317.5H617.55C623.2 317.5 627.675 318.825 630.975 321.475C634.275 324.125 635.925 328.05 635.925 333.25C635.925 337.1 634.95 340.25 633 342.7C631.1 345.1 628.5 346.775 625.2 347.725L636.75 367.675C636.9 367.975 636.975 368.25 636.975 368.5C636.975 368.9 636.8 369.25 636.45 369.55C636.15 369.85 635.8 370 635.4 370H631.8C630.95 370 630.325 369.775 629.925 369.325C629.525 368.875 629.175 368.425 628.875 367.975L618 348.925H604.875V368.275C604.875 368.775 604.7 369.2 604.35 369.55C604.05 369.85 603.625 370 603.075 370H599.25ZM604.875 342.55H617.25C621 342.55 623.8 341.775 625.65 340.225C627.5 338.625 628.425 336.275 628.425 333.175C628.425 330.125 627.5 327.8 625.65 326.2C623.85 324.6 621.05 323.8 617.25 323.8H604.875V342.55ZM660.781 370.75C655.631 370.75 651.531 369.175 648.481 366.025C645.431 362.825 643.756 358.475 643.456 352.975C643.406 352.325 643.381 351.5 643.381 350.5C643.381 349.45 643.406 348.6 643.456 347.95C643.656 344.4 644.481 341.3 645.931 338.65C647.381 335.95 649.356 333.875 651.856 332.425C654.406 330.975 657.381 330.25 660.781 330.25C664.581 330.25 667.756 331.05 670.306 332.65C672.906 334.25 674.881 336.525 676.231 339.475C677.581 342.425 678.256 345.875 678.256 349.825V351.1C678.256 351.65 678.081 352.075 677.731 352.375C677.431 352.675 677.031 352.825 676.531 352.825H650.581C650.581 352.875 650.581 352.975 650.581 353.125C650.581 353.275 650.581 353.4 650.581 353.5C650.681 355.55 651.131 357.475 651.931 359.275C652.731 361.025 653.881 362.45 655.381 363.55C656.881 364.65 658.681 365.2 660.781 365.2C662.581 365.2 664.081 364.925 665.281 364.375C666.481 363.825 667.456 363.225 668.206 362.575C668.956 361.875 669.456 361.35 669.706 361C670.156 360.35 670.506 359.975 670.756 359.875C671.006 359.725 671.406 359.65 671.956 359.65H675.556C676.056 359.65 676.456 359.8 676.756 360.1C677.106 360.35 677.256 360.725 677.206 361.225C677.156 361.975 676.756 362.9 676.006 364C675.256 365.05 674.181 366.1 672.781 367.15C671.381 368.2 669.681 369.075 667.681 369.775C665.681 370.425 663.381 370.75 660.781 370.75ZM650.581 347.65H671.131V347.425C671.131 345.175 670.706 343.175 669.856 341.425C669.056 339.675 667.881 338.3 666.331 337.3C664.781 336.25 662.931 335.725 660.781 335.725C658.631 335.725 656.781 336.25 655.231 337.3C653.731 338.3 652.581 339.675 651.781 341.425C650.981 343.175 650.581 345.175 650.581 347.425V347.65ZM702.974 370.75C699.424 370.75 696.349 370.075 693.749 368.725C691.199 367.325 689.224 365.35 687.824 362.8C686.424 360.2 685.674 357.1 685.574 353.5C685.524 352.75 685.499 351.75 685.499 350.5C685.499 349.25 685.524 348.25 685.574 347.5C685.674 343.9 686.424 340.825 687.824 338.275C689.224 335.675 691.199 333.7 693.749 332.35C696.349 330.95 699.424 330.25 702.974 330.25C705.874 330.25 708.349 330.65 710.399 331.45C712.499 332.25 714.224 333.275 715.574 334.525C716.924 335.775 717.924 337.125 718.574 338.575C719.274 340.025 719.649 341.4 719.699 342.7C719.749 343.2 719.599 343.6 719.249 343.9C718.899 344.2 718.474 344.35 717.974 344.35H714.374C713.874 344.35 713.499 344.25 713.249 344.05C712.999 343.8 712.749 343.4 712.499 342.85C711.599 340.4 710.374 338.675 708.824 337.675C707.274 336.675 705.349 336.175 703.049 336.175C700.049 336.175 697.599 337.1 695.699 338.95C693.849 340.8 692.849 343.775 692.699 347.875C692.649 349.675 692.649 351.425 692.699 353.125C692.849 357.275 693.849 360.275 695.699 362.125C697.599 363.925 700.049 364.825 703.049 364.825C705.349 364.825 707.274 364.325 708.824 363.325C710.374 362.325 711.599 360.6 712.499 358.15C712.749 357.6 712.999 357.225 713.249 357.025C713.499 356.775 713.874 356.65 714.374 356.65H717.974C718.474 356.65 718.899 356.8 719.249 357.1C719.599 357.4 719.749 357.8 719.699 358.3C719.649 359.35 719.424 360.425 719.024 361.525C718.624 362.625 717.974 363.75 717.074 364.9C716.224 366 715.149 367 713.849 367.9C712.549 368.75 710.974 369.45 709.124 370C707.324 370.5 705.274 370.75 702.974 370.75ZM744.581 370.75C740.781 370.75 737.606 370.025 735.056 368.575C732.506 367.125 730.556 365.125 729.206 362.575C727.856 359.975 727.106 357.025 726.956 353.725C726.906 352.875 726.881 351.8 726.881 350.5C726.881 349.15 726.906 348.075 726.956 347.275C727.106 343.925 727.856 340.975 729.206 338.425C730.606 335.875 732.581 333.875 735.131 332.425C737.681 330.975 740.831 330.25 744.581 330.25C748.331 330.25 751.481 330.975 754.031 332.425C756.581 333.875 758.531 335.875 759.881 338.425C761.281 340.975 762.056 343.925 762.206 347.275C762.256 348.075 762.281 349.15 762.281 350.5C762.281 351.8 762.256 352.875 762.206 353.725C762.056 357.025 761.306 359.975 759.956 362.575C758.606 365.125 756.656 367.125 754.106 368.575C751.556 370.025 748.381 370.75 744.581 370.75ZM744.581 364.975C747.681 364.975 750.156 364 752.006 362.05C753.856 360.05 754.856 357.15 755.006 353.35C755.056 352.6 755.081 351.65 755.081 350.5C755.081 349.35 755.056 348.4 755.006 347.65C754.856 343.85 753.856 340.975 752.006 339.025C750.156 337.025 747.681 336.025 744.581 336.025C741.481 336.025 738.981 337.025 737.081 339.025C735.231 340.975 734.256 343.85 734.156 347.65C734.106 348.4 734.081 349.35 734.081 350.5C734.081 351.65 734.106 352.6 734.156 353.35C734.256 357.15 735.231 360.05 737.081 362.05C738.981 364 741.481 364.975 744.581 364.975ZM773.397 370C772.897 370 772.472 369.85 772.122 369.55C771.822 369.2 771.672 368.775 771.672 368.275V332.725C771.672 332.225 771.822 331.825 772.122 331.525C772.472 331.175 772.897 331 773.397 331H776.772C777.272 331 777.672 331.175 777.972 331.525C778.322 331.825 778.497 332.225 778.497 332.725V335.35C779.647 333.8 781.097 332.575 782.847 331.675C784.597 330.725 786.697 330.25 789.147 330.25C794.797 330.2 798.797 332.5 801.147 337.15C802.297 335.05 803.972 333.375 806.172 332.125C808.372 330.875 810.872 330.25 813.672 330.25C816.272 330.25 818.622 330.85 820.722 332.05C822.872 333.25 824.547 335.075 825.747 337.525C826.997 339.925 827.622 342.95 827.622 346.6V368.275C827.622 368.775 827.447 369.2 827.097 369.55C826.797 369.85 826.397 370 825.897 370H822.372C821.872 370 821.447 369.85 821.097 369.55C820.797 369.2 820.647 368.775 820.647 368.275V347.275C820.647 344.475 820.247 342.275 819.447 340.675C818.647 339.075 817.572 337.95 816.222 337.3C814.872 336.65 813.397 336.325 811.797 336.325C810.497 336.325 809.172 336.65 807.822 337.3C806.472 337.95 805.347 339.075 804.447 340.675C803.597 342.275 803.172 344.475 803.172 347.275V368.275C803.172 368.775 802.997 369.2 802.647 369.55C802.347 369.85 801.947 370 801.447 370H797.922C797.422 370 796.997 369.85 796.647 369.55C796.347 369.2 796.197 368.775 796.197 368.275V347.275C796.197 344.475 795.772 342.275 794.922 340.675C794.072 339.075 792.972 337.95 791.622 337.3C790.272 336.65 788.847 336.325 787.347 336.325C786.047 336.325 784.722 336.65 783.372 337.3C782.022 337.95 780.897 339.075 779.997 340.675C779.147 342.275 778.722 344.45 778.722 347.2V368.275C778.722 368.775 778.547 369.2 778.197 369.55C777.897 369.85 777.497 370 776.997 370H773.397ZM840.122 384.25C839.622 384.25 839.197 384.075 838.847 383.725C838.547 383.425 838.397 383.025 838.397 382.525V332.725C838.397 332.225 838.547 331.825 838.847 331.525C839.197 331.175 839.622 331 840.122 331H843.572C844.072 331 844.472 331.175 844.772 331.525C845.122 331.825 845.297 332.225 845.297 332.725V336.025C846.497 334.375 848.097 333 850.097 331.9C852.097 330.8 854.597 330.25 857.597 330.25C860.397 330.25 862.772 330.725 864.722 331.675C866.722 332.625 868.347 333.925 869.597 335.575C870.897 337.225 871.872 339.1 872.522 341.2C873.172 343.3 873.522 345.55 873.572 347.95C873.622 348.75 873.647 349.6 873.647 350.5C873.647 351.4 873.622 352.25 873.572 353.05C873.522 355.4 873.172 357.65 872.522 359.8C871.872 361.9 870.897 363.775 869.597 365.425C868.347 367.025 866.722 368.325 864.722 369.325C862.772 370.275 860.397 370.75 857.597 370.75C854.697 370.75 852.247 370.225 850.247 369.175C848.297 368.075 846.697 366.725 845.447 365.125V382.525C845.447 383.025 845.297 383.425 844.997 383.725C844.697 384.075 844.272 384.25 843.722 384.25H840.122ZM856.022 364.675C858.622 364.675 860.647 364.125 862.097 363.025C863.597 361.875 864.672 360.4 865.322 358.6C865.972 356.75 866.347 354.775 866.447 352.675C866.497 351.225 866.497 349.775 866.447 348.325C866.347 346.225 865.972 344.275 865.322 342.475C864.672 340.625 863.597 339.15 862.097 338.05C860.647 336.9 858.622 336.325 856.022 336.325C853.572 336.325 851.572 336.9 850.022 338.05C848.522 339.2 847.397 340.675 846.647 342.475C845.947 344.225 845.547 346.025 845.447 347.875C845.397 348.675 845.372 349.625 845.372 350.725C845.372 351.825 845.397 352.8 845.447 353.65C845.497 355.4 845.897 357.125 846.647 358.825C847.447 360.525 848.622 361.925 850.172 363.025C851.722 364.125 853.672 364.675 856.022 364.675ZM898.975 370.75C895.175 370.75 892 370.025 889.45 368.575C886.9 367.125 884.95 365.125 883.6 362.575C882.25 359.975 881.5 357.025 881.35 353.725C881.3 352.875 881.275 351.8 881.275 350.5C881.275 349.15 881.3 348.075 881.35 347.275C881.5 343.925 882.25 340.975 883.6 338.425C885 335.875 886.975 333.875 889.525 332.425C892.075 330.975 895.225 330.25 898.975 330.25C902.725 330.25 905.875 330.975 908.425 332.425C910.975 333.875 912.925 335.875 914.275 338.425C915.675 340.975 916.45 343.925 916.6 347.275C916.65 348.075 916.675 349.15 916.675 350.5C916.675 351.8 916.65 352.875 916.6 353.725C916.45 357.025 915.7 359.975 914.35 362.575C913 365.125 911.05 367.125 908.5 368.575C905.95 370.025 902.775 370.75 898.975 370.75ZM898.975 364.975C902.075 364.975 904.55 364 906.4 362.05C908.25 360.05 909.25 357.15 909.4 353.35C909.45 352.6 909.475 351.65 909.475 350.5C909.475 349.35 909.45 348.4 909.4 347.65C909.25 343.85 908.25 340.975 906.4 339.025C904.55 337.025 902.075 336.025 898.975 336.025C895.875 336.025 893.375 337.025 891.475 339.025C889.625 340.975 888.65 343.85 888.55 347.65C888.5 348.4 888.475 349.35 888.475 350.5C888.475 351.65 888.5 352.6 888.55 353.35C888.65 357.15 889.625 360.05 891.475 362.05C893.375 364 895.875 364.975 898.975 364.975ZM939.567 370.75C936.767 370.75 934.367 370.4 932.367 369.7C930.367 369 928.742 368.15 927.492 367.15C926.242 366.15 925.292 365.15 924.642 364.15C924.042 363.15 923.717 362.35 923.667 361.75C923.617 361.2 923.792 360.775 924.192 360.475C924.592 360.175 924.992 360.025 925.392 360.025H928.692C928.992 360.025 929.217 360.075 929.367 360.175C929.567 360.225 929.817 360.425 930.117 360.775C930.767 361.475 931.492 362.175 932.292 362.875C933.092 363.575 934.067 364.15 935.217 364.6C936.417 365.05 937.892 365.275 939.642 365.275C942.192 365.275 944.292 364.8 945.942 363.85C947.592 362.85 948.417 361.4 948.417 359.5C948.417 358.25 948.067 357.25 947.367 356.5C946.717 355.75 945.517 355.075 943.767 354.475C942.067 353.875 939.717 353.25 936.717 352.6C933.717 351.9 931.342 351.05 929.592 350.05C927.842 349 926.592 347.775 925.842 346.375C925.092 344.925 924.717 343.3 924.717 341.5C924.717 339.65 925.267 337.875 926.367 336.175C927.467 334.425 929.067 333 931.167 331.9C933.317 330.8 935.992 330.25 939.192 330.25C941.792 330.25 944.017 330.575 945.867 331.225C947.717 331.875 949.242 332.7 950.442 333.7C951.642 334.65 952.542 335.6 953.142 336.55C953.742 337.5 954.067 338.3 954.117 338.95C954.167 339.45 954.017 339.875 953.667 340.225C953.317 340.525 952.917 340.675 952.467 340.675H949.317C948.967 340.675 948.667 340.6 948.417 340.45C948.217 340.3 948.017 340.125 947.817 339.925C947.317 339.275 946.717 338.625 946.017 337.975C945.367 337.325 944.492 336.8 943.392 336.4C942.342 335.95 940.942 335.725 939.192 335.725C936.692 335.725 934.817 336.25 933.567 337.3C932.317 338.35 931.692 339.675 931.692 341.275C931.692 342.225 931.967 343.075 932.517 343.825C933.067 344.575 934.117 345.25 935.667 345.85C937.217 346.45 939.517 347.1 942.567 347.8C945.867 348.45 948.467 349.325 950.367 350.425C952.267 351.525 953.617 352.8 954.417 354.25C955.217 355.7 955.617 357.375 955.617 359.275C955.617 361.375 954.992 363.3 953.742 365.05C952.542 366.8 950.742 368.2 948.342 369.25C945.992 370.25 943.067 370.75 939.567 370.75ZM979.824 370.75C974.674 370.75 970.574 369.175 967.524 366.025C964.474 362.825 962.799 358.475 962.499 352.975C962.449 352.325 962.424 351.5 962.424 350.5C962.424 349.45 962.449 348.6 962.499 347.95C962.699 344.4 963.524 341.3 964.974 338.65C966.424 335.95 968.399 333.875 970.899 332.425C973.449 330.975 976.424 330.25 979.824 330.25C983.624 330.25 986.799 331.05 989.349 332.65C991.949 334.25 993.924 336.525 995.274 339.475C996.624 342.425 997.299 345.875 997.299 349.825V351.1C997.299 351.65 997.124 352.075 996.774 352.375C996.474 352.675 996.074 352.825 995.574 352.825H969.624C969.624 352.875 969.624 352.975 969.624 353.125C969.624 353.275 969.624 353.4 969.624 353.5C969.724 355.55 970.174 357.475 970.974 359.275C971.774 361.025 972.924 362.45 974.424 363.55C975.924 364.65 977.724 365.2 979.824 365.2C981.624 365.2 983.124 364.925 984.324 364.375C985.524 363.825 986.499 363.225 987.249 362.575C987.999 361.875 988.499 361.35 988.749 361C989.199 360.35 989.549 359.975 989.799 359.875C990.049 359.725 990.449 359.65 990.999 359.65H994.599C995.099 359.65 995.499 359.8 995.799 360.1C996.149 360.35 996.299 360.725 996.249 361.225C996.199 361.975 995.799 362.9 995.049 364C994.299 365.05 993.224 366.1 991.824 367.15C990.424 368.2 988.724 369.075 986.724 369.775C984.724 370.425 982.424 370.75 979.824 370.75ZM969.624 347.65H990.174V347.425C990.174 345.175 989.749 343.175 988.899 341.425C988.099 339.675 986.924 338.3 985.374 337.3C983.824 336.25 981.974 335.725 979.824 335.725C977.674 335.725 975.824 336.25 974.274 337.3C972.774 338.3 971.624 339.675 970.824 341.425C970.024 343.175 969.624 345.175 969.624 347.425V347.65ZM1038.26 370C1035.46 370 1033.19 369.475 1031.44 368.425C1029.69 367.325 1028.41 365.8 1027.61 363.85C1026.81 361.85 1026.41 359.5 1026.41 356.8V337H1020.56C1020.06 337 1019.64 336.85 1019.29 336.55C1018.99 336.2 1018.84 335.775 1018.84 335.275V332.725C1018.84 332.225 1018.99 331.825 1019.29 331.525C1019.64 331.175 1020.06 331 1020.56 331H1026.41V318.475C1026.41 317.975 1026.56 317.575 1026.86 317.275C1027.21 316.925 1027.64 316.75 1028.14 316.75H1031.66C1032.16 316.75 1032.56 316.925 1032.86 317.275C1033.21 317.575 1033.39 317.975 1033.39 318.475V331H1042.69C1043.19 331 1043.59 331.175 1043.89 331.525C1044.24 331.825 1044.41 332.225 1044.41 332.725V335.275C1044.41 335.775 1044.24 336.2 1043.89 336.55C1043.59 336.85 1043.19 337 1042.69 337H1033.39V356.275C1033.39 358.625 1033.79 360.475 1034.59 361.825C1035.39 363.175 1036.81 363.85 1038.86 363.85H1043.44C1043.94 363.85 1044.34 364.025 1044.64 364.375C1044.99 364.675 1045.16 365.075 1045.16 365.575V368.275C1045.16 368.775 1044.99 369.2 1044.64 369.55C1044.34 369.85 1043.94 370 1043.44 370H1038.26ZM1054.14 370C1053.64 370 1053.21 369.85 1052.86 369.55C1052.56 369.2 1052.41 368.775 1052.41 368.275V318.475C1052.41 317.975 1052.56 317.575 1052.86 317.275C1053.21 316.925 1053.64 316.75 1054.14 316.75H1057.89C1058.44 316.75 1058.86 316.925 1059.16 317.275C1059.46 317.575 1059.61 317.975 1059.61 318.475V335.95C1060.96 334.25 1062.61 332.875 1064.56 331.825C1066.51 330.775 1068.99 330.25 1071.99 330.25C1075.24 330.25 1077.99 330.975 1080.24 332.425C1082.54 333.825 1084.26 335.8 1085.41 338.35C1086.61 340.85 1087.21 343.775 1087.21 347.125V368.275C1087.21 368.775 1087.06 369.2 1086.76 369.55C1086.46 369.85 1086.04 370 1085.49 370H1081.74C1081.24 370 1080.81 369.85 1080.46 369.55C1080.16 369.2 1080.01 368.775 1080.01 368.275V347.5C1080.01 344 1079.16 341.275 1077.46 339.325C1075.76 337.325 1073.26 336.325 1069.96 336.325C1066.86 336.325 1064.36 337.325 1062.46 339.325C1060.56 341.275 1059.61 344 1059.61 347.5V368.275C1059.61 368.775 1059.46 369.2 1059.16 369.55C1058.86 369.85 1058.44 370 1057.89 370H1054.14ZM1113.56 370.75C1108.41 370.75 1104.31 369.175 1101.26 366.025C1098.21 362.825 1096.54 358.475 1096.24 352.975C1096.19 352.325 1096.16 351.5 1096.16 350.5C1096.16 349.45 1096.19 348.6 1096.24 347.95C1096.44 344.4 1097.26 341.3 1098.71 338.65C1100.16 335.95 1102.14 333.875 1104.64 332.425C1107.19 330.975 1110.16 330.25 1113.56 330.25C1117.36 330.25 1120.54 331.05 1123.09 332.65C1125.69 334.25 1127.66 336.525 1129.01 339.475C1130.36 342.425 1131.04 345.875 1131.04 349.825V351.1C1131.04 351.65 1130.86 352.075 1130.51 352.375C1130.21 352.675 1129.81 352.825 1129.31 352.825H1103.36C1103.36 352.875 1103.36 352.975 1103.36 353.125C1103.36 353.275 1103.36 353.4 1103.36 353.5C1103.46 355.55 1103.91 357.475 1104.71 359.275C1105.51 361.025 1106.66 362.45 1108.16 363.55C1109.66 364.65 1111.46 365.2 1113.56 365.2C1115.36 365.2 1116.86 364.925 1118.06 364.375C1119.26 363.825 1120.24 363.225 1120.99 362.575C1121.74 361.875 1122.24 361.35 1122.49 361C1122.94 360.35 1123.29 359.975 1123.54 359.875C1123.79 359.725 1124.19 359.65 1124.74 359.65H1128.34C1128.84 359.65 1129.24 359.8 1129.54 360.1C1129.89 360.35 1130.04 360.725 1129.99 361.225C1129.94 361.975 1129.54 362.9 1128.79 364C1128.04 365.05 1126.96 366.1 1125.56 367.15C1124.16 368.2 1122.46 369.075 1120.46 369.775C1118.46 370.425 1116.16 370.75 1113.56 370.75ZM1103.36 347.65H1123.91V347.425C1123.91 345.175 1123.49 343.175 1122.64 341.425C1121.84 339.675 1120.66 338.3 1119.11 337.3C1117.56 336.25 1115.71 335.725 1113.56 335.725C1111.41 335.725 1109.56 336.25 1108.01 337.3C1106.51 338.3 1105.36 339.675 1104.56 341.425C1103.76 343.175 1103.36 345.175 1103.36 347.425V347.65ZM1167.04 370C1166.39 370 1165.87 369.825 1165.47 369.475C1165.12 369.125 1164.87 368.625 1164.72 367.975L1155.04 319.825C1154.99 319.625 1154.97 319.45 1154.97 319.3C1154.97 319.15 1154.97 319.05 1154.97 319C1154.97 318.6 1155.12 318.25 1155.42 317.95C1155.72 317.65 1156.07 317.5 1156.47 317.5H1160.37C1161.42 317.5 1162.02 317.925 1162.17 318.775L1169.82 357.475L1177.92 330.925C1178.07 330.475 1178.32 330.075 1178.67 329.725C1179.07 329.325 1179.62 329.125 1180.32 329.125H1183.09C1183.84 329.125 1184.39 329.325 1184.74 329.725C1185.09 330.075 1185.32 330.475 1185.42 330.925L1193.59 357.475L1201.17 318.775C1201.32 317.925 1201.94 317.5 1203.04 317.5H1206.94C1207.34 317.5 1207.69 317.65 1207.99 317.95C1208.29 318.25 1208.44 318.6 1208.44 319C1208.44 319.05 1208.42 319.15 1208.37 319.3C1208.37 319.45 1208.37 319.625 1208.37 319.825L1198.69 367.975C1198.54 368.625 1198.27 369.125 1197.87 369.475C1197.52 369.825 1197.02 370 1196.37 370H1193.44C1192.74 370 1192.19 369.825 1191.79 369.475C1191.39 369.125 1191.12 368.675 1190.97 368.125L1181.67 339.55L1172.44 368.125C1172.24 368.675 1171.94 369.125 1171.54 369.475C1171.19 369.825 1170.67 370 1169.97 370H1167.04ZM1231.19 370.75C1226.04 370.75 1221.94 369.175 1218.89 366.025C1215.84 362.825 1214.17 358.475 1213.87 352.975C1213.82 352.325 1213.79 351.5 1213.79 350.5C1213.79 349.45 1213.82 348.6 1213.87 347.95C1214.07 344.4 1214.89 341.3 1216.34 338.65C1217.79 335.95 1219.77 333.875 1222.27 332.425C1224.82 330.975 1227.79 330.25 1231.19 330.25C1234.99 330.25 1238.17 331.05 1240.72 332.65C1243.32 334.25 1245.29 336.525 1246.64 339.475C1247.99 342.425 1248.67 345.875 1248.67 349.825V351.1C1248.67 351.65 1248.49 352.075 1248.14 352.375C1247.84 352.675 1247.44 352.825 1246.94 352.825H1220.99C1220.99 352.875 1220.99 352.975 1220.99 353.125C1220.99 353.275 1220.99 353.4 1220.99 353.5C1221.09 355.55 1221.54 357.475 1222.34 359.275C1223.14 361.025 1224.29 362.45 1225.79 363.55C1227.29 364.65 1229.09 365.2 1231.19 365.2C1232.99 365.2 1234.49 364.925 1235.69 364.375C1236.89 363.825 1237.87 363.225 1238.62 362.575C1239.37 361.875 1239.87 361.35 1240.12 361C1240.57 360.35 1240.92 359.975 1241.17 359.875C1241.42 359.725 1241.82 359.65 1242.37 359.65H1245.97C1246.47 359.65 1246.87 359.8 1247.17 360.1C1247.52 360.35 1247.67 360.725 1247.62 361.225C1247.57 361.975 1247.17 362.9 1246.42 364C1245.67 365.05 1244.59 366.1 1243.19 367.15C1241.79 368.2 1240.09 369.075 1238.09 369.775C1236.09 370.425 1233.79 370.75 1231.19 370.75ZM1220.99 347.65H1241.54V347.425C1241.54 345.175 1241.12 343.175 1240.27 341.425C1239.47 339.675 1238.29 338.3 1236.74 337.3C1235.19 336.25 1233.34 335.725 1231.19 335.725C1229.04 335.725 1227.19 336.25 1225.64 337.3C1224.14 338.3 1222.99 339.675 1222.19 341.425C1221.39 343.175 1220.99 345.175 1220.99 347.425V347.65ZM1276.91 370.75C1273.91 370.75 1271.41 370.225 1269.41 369.175C1267.41 368.075 1265.81 366.725 1264.61 365.125V368.275C1264.61 368.775 1264.43 369.2 1264.08 369.55C1263.78 369.85 1263.38 370 1262.88 370H1259.43C1258.93 370 1258.51 369.85 1258.16 369.55C1257.86 369.2 1257.71 368.775 1257.71 368.275V318.475C1257.71 317.975 1257.86 317.575 1258.16 317.275C1258.51 316.925 1258.93 316.75 1259.43 316.75H1263.03C1263.58 316.75 1264.01 316.925 1264.31 317.275C1264.61 317.575 1264.76 317.975 1264.76 318.475V335.725C1266.01 334.175 1267.61 332.875 1269.56 331.825C1271.56 330.775 1274.01 330.25 1276.91 330.25C1279.71 330.25 1282.08 330.75 1284.03 331.75C1286.03 332.7 1287.66 334.025 1288.91 335.725C1290.21 337.425 1291.18 339.35 1291.83 341.5C1292.48 343.65 1292.83 345.9 1292.88 348.25C1292.93 349.05 1292.96 349.8 1292.96 350.5C1292.96 351.2 1292.93 351.95 1292.88 352.75C1292.83 355.15 1292.48 357.425 1291.83 359.575C1291.18 361.725 1290.21 363.65 1288.91 365.35C1287.66 367 1286.03 368.325 1284.03 369.325C1282.08 370.275 1279.71 370.75 1276.91 370.75ZM1275.33 364.675C1277.93 364.675 1279.96 364.125 1281.41 363.025C1282.91 361.875 1283.98 360.4 1284.63 358.6C1285.28 356.75 1285.66 354.775 1285.76 352.675C1285.81 351.225 1285.81 349.775 1285.76 348.325C1285.66 346.225 1285.28 344.275 1284.63 342.475C1283.98 340.625 1282.91 339.15 1281.41 338.05C1279.96 336.9 1277.93 336.325 1275.33 336.325C1272.98 336.325 1271.03 336.875 1269.48 337.975C1267.93 339.075 1266.76 340.475 1265.96 342.175C1265.21 343.875 1264.81 345.6 1264.76 347.35C1264.71 348.15 1264.68 349.125 1264.68 350.275C1264.68 351.375 1264.71 352.325 1264.76 353.125C1264.86 354.975 1265.26 356.8 1265.96 358.6C1266.71 360.35 1267.83 361.8 1269.33 362.95C1270.88 364.1 1272.88 364.675 1275.33 364.675Z" fill="white"/>
</g>
<defs>
<clipPath id="clip0_402_22">
<rect width="1500" height="499.667" fill="white"/>
</clipPath>
</defs>
</svg>
