<svg width="500" height="500" viewBox="0 0 500 500" fill="none" xmlns="http://www.w3.org/2000/svg">
<g clip-path="url(#clip0_401_2)">
<path d="M500 250C500 388.071 388.071 500 250 500C111.929 500 0 388.071 0 250C0 111.929 111.929 0 250 0C388.071 0 500 111.929 500 250Z" fill="#F7DF1E"/>
<path d="M67.8423 245.975V236.525C67.8423 233.075 70.0173 229.925 74.3673 227.075L164.367 166.325C165.117 165.875 166.017 165.65 167.067 165.65C168.267 165.65 169.317 166.1 170.217 167C171.117 167.9 171.567 169.025 171.567 170.375V206.825C171.567 210.575 169.167 213.875 164.367 216.725L124.992 241.25L164.367 266C165.867 266.9 166.917 267.575 167.517 268.025C168.267 268.475 169.092 269.45 169.992 270.95C171.042 272.3 171.567 273.875 171.567 275.675V312.125C171.567 313.475 171.117 314.6 170.217 315.5C169.317 316.4 168.267 316.85 167.067 316.85C166.017 316.85 165.117 316.625 164.367 316.175L74.3673 255.425C70.0173 252.575 67.8423 249.425 67.8423 245.975ZM275.349 143.15H305.499C306.849 143.15 307.974 143.675 308.874 144.725C309.924 145.625 310.449 146.6 310.449 147.65C310.449 148.55 310.299 149.375 309.999 150.125L233.949 332.15C232.149 336.65 228.849 338.9 224.049 338.9H194.574C193.224 338.9 192.024 338.375 190.974 337.325C190.074 336.425 189.624 335.45 189.624 334.4C189.624 333.5 189.774 332.675 190.074 331.925L265.449 149.9C267.399 145.4 270.699 143.15 275.349 143.15ZM432.101 236.525V245.975C432.101 249.425 429.926 252.575 425.576 255.425L335.576 316.175C334.826 316.625 333.851 316.85 332.651 316.85C331.601 316.85 330.626 316.4 329.726 315.5C328.826 314.6 328.376 313.475 328.376 312.125V275.675C328.376 273.875 328.826 272.3 329.726 270.95C330.776 269.45 331.601 268.475 332.201 268.025C332.951 267.575 334.076 266.9 335.576 266L374.951 241.25L335.576 216.725C330.776 213.875 328.376 210.575 328.376 206.825V170.375C328.376 169.025 328.826 167.9 329.726 167C330.626 166.1 331.601 165.65 332.651 165.65C333.851 165.65 334.826 165.875 335.576 166.325L425.576 227.075C429.926 229.925 432.101 233.075 432.101 236.525Z" fill="black"/>
</g>
<defs>
<clipPath id="clip0_401_2">
<rect width="500" height="500" fill="white"/>
</clipPath>
</defs>
</svg>
